<svg xmlns="http://www.w3.org/2000/svg" xmlns:xlink="http://www.w3.org/1999/xlink" width="1024" zoomAndPan="magnify" viewBox="0 0 768 767.999994" height="1024" preserveAspectRatio="xMidYMid meet" version="1.0"><defs><clipPath id="a8e5cc8869"><path d="M 5.941406 5.941406 L 762.058594 5.941406 L 762.058594 762.058594 L 5.941406 762.058594 Z M 5.941406 5.941406 " clip-rule="nonzero"/></clipPath><clipPath id="ca348eb40d"><path d="M 125.941406 5.941406 L 642.058594 5.941406 C 673.882812 5.941406 704.40625 18.585938 726.910156 41.089844 C 749.414062 63.59375 762.058594 94.117188 762.058594 125.941406 L 762.058594 642.058594 C 762.058594 673.882812 749.414062 704.40625 726.910156 726.910156 C 704.40625 749.414062 673.882812 762.058594 642.058594 762.058594 L 125.941406 762.058594 C 94.117188 762.058594 63.59375 749.414062 41.089844 726.910156 C 18.585938 704.40625 5.941406 673.882812 5.941406 642.058594 L 5.941406 125.941406 C 5.941406 94.117188 18.585938 63.59375 41.089844 41.089844 C 63.59375 18.585938 94.117188 5.941406 125.941406 5.941406 Z M 125.941406 5.941406 " clip-rule="nonzero"/></clipPath><linearGradient x1="-0.00000218638" gradientTransform="matrix(2.953572, 0, 0, 2.953572, 5.94286, 5.94289)" y1="-0.00000218638" x2="255.999981" gradientUnits="userSpaceOnUse" y2="255.999981" id="1f5c346d3c"><stop stop-opacity="1" stop-color="rgb(3.09906%, 31.799316%, 77.2995%)" offset="0"/><stop stop-opacity="1" stop-color="rgb(3.077698%, 31.87561%, 77.47345%)" offset="0.015625"/><stop stop-opacity="1" stop-color="rgb(3.034973%, 32.028198%, 77.82135%)" offset="0.03125"/><stop stop-opacity="1" stop-color="rgb(2.993774%, 32.182312%, 78.170776%)" offset="0.046875"/><stop stop-opacity="1" stop-color="rgb(2.95105%, 32.3349%, 78.518677%)" offset="0.0625"/><stop stop-opacity="1" stop-color="rgb(2.909851%, 32.487488%, 78.866577%)" offset="0.078125"/><stop stop-opacity="1" stop-color="rgb(2.867126%, 32.641602%, 79.216003%)" offset="0.09375"/><stop stop-opacity="1" stop-color="rgb(2.824402%, 32.794189%, 79.563904%)" offset="0.109375"/><stop stop-opacity="1" stop-color="rgb(2.783203%, 32.946777%, 79.911804%)" offset="0.125"/><stop stop-opacity="1" stop-color="rgb(2.740479%, 33.100891%, 80.26123%)" offset="0.140625"/><stop stop-opacity="1" stop-color="rgb(2.697754%, 33.253479%, 80.609131%)" offset="0.15625"/><stop stop-opacity="1" stop-color="rgb(2.656555%, 33.406067%, 80.957031%)" offset="0.171875"/><stop stop-opacity="1" stop-color="rgb(2.613831%, 33.560181%, 81.306458%)" offset="0.1875"/><stop stop-opacity="1" stop-color="rgb(2.571106%, 33.712769%, 81.654358%)" offset="0.203125"/><stop stop-opacity="1" stop-color="rgb(2.529907%, 33.866882%, 82.002258%)" offset="0.21875"/><stop stop-opacity="1" stop-color="rgb(2.487183%, 34.01947%, 82.351685%)" offset="0.234375"/><stop stop-opacity="1" stop-color="rgb(2.444458%, 34.172058%, 82.699585%)" offset="0.25"/><stop stop-opacity="1" stop-color="rgb(2.403259%, 34.326172%, 83.047485%)" offset="0.265625"/><stop stop-opacity="1" stop-color="rgb(2.360535%, 34.47876%, 83.396912%)" offset="0.28125"/><stop stop-opacity="1" stop-color="rgb(2.31781%, 34.631348%, 83.744812%)" offset="0.296875"/><stop stop-opacity="1" stop-color="rgb(2.276611%, 34.785461%, 84.094238%)" offset="0.3125"/><stop stop-opacity="1" stop-color="rgb(2.233887%, 34.938049%, 84.442139%)" offset="0.328125"/><stop stop-opacity="1" stop-color="rgb(2.192688%, 35.090637%, 84.790039%)" offset="0.34375"/><stop stop-opacity="1" stop-color="rgb(2.149963%, 35.244751%, 85.139465%)" offset="0.359375"/><stop stop-opacity="1" stop-color="rgb(2.107239%, 35.397339%, 85.487366%)" offset="0.375"/><stop stop-opacity="1" stop-color="rgb(2.06604%, 35.549927%, 85.835266%)" offset="0.390625"/><stop stop-opacity="1" stop-color="rgb(2.023315%, 35.704041%, 86.184692%)" offset="0.40625"/><stop stop-opacity="1" stop-color="rgb(1.980591%, 35.856628%, 86.532593%)" offset="0.421875"/><stop stop-opacity="1" stop-color="rgb(1.939392%, 36.009216%, 86.880493%)" offset="0.4375"/><stop stop-opacity="1" stop-color="rgb(1.896667%, 36.16333%, 87.229919%)" offset="0.453125"/><stop stop-opacity="1" stop-color="rgb(1.853943%, 36.315918%, 87.57782%)" offset="0.46875"/><stop stop-opacity="1" stop-color="rgb(1.812744%, 36.470032%, 87.92572%)" offset="0.484375"/><stop stop-opacity="1" stop-color="rgb(1.77002%, 36.62262%, 88.275146%)" offset="0.5"/><stop stop-opacity="1" stop-color="rgb(1.727295%, 36.775208%, 88.623047%)" offset="0.515625"/><stop stop-opacity="1" stop-color="rgb(1.686096%, 36.929321%, 88.970947%)" offset="0.53125"/><stop stop-opacity="1" stop-color="rgb(1.643372%, 37.081909%, 89.320374%)" offset="0.546875"/><stop stop-opacity="1" stop-color="rgb(1.600647%, 37.234497%, 89.668274%)" offset="0.5625"/><stop stop-opacity="1" stop-color="rgb(1.559448%, 37.388611%, 90.016174%)" offset="0.578125"/><stop stop-opacity="1" stop-color="rgb(1.516724%, 37.541199%, 90.365601%)" offset="0.59375"/><stop stop-opacity="1" stop-color="rgb(1.473999%, 37.693787%, 90.713501%)" offset="0.609375"/><stop stop-opacity="1" stop-color="rgb(1.4328%, 37.8479%, 91.062927%)" offset="0.625"/><stop stop-opacity="1" stop-color="rgb(1.390076%, 38.000488%, 91.410828%)" offset="0.640625"/><stop stop-opacity="1" stop-color="rgb(1.348877%, 38.153076%, 91.758728%)" offset="0.65625"/><stop stop-opacity="1" stop-color="rgb(1.306152%, 38.30719%, 92.108154%)" offset="0.671875"/><stop stop-opacity="1" stop-color="rgb(1.263428%, 38.459778%, 92.456055%)" offset="0.6875"/><stop stop-opacity="1" stop-color="rgb(1.222229%, 38.612366%, 92.803955%)" offset="0.703125"/><stop stop-opacity="1" stop-color="rgb(1.179504%, 38.766479%, 93.153381%)" offset="0.71875"/><stop stop-opacity="1" stop-color="rgb(1.13678%, 38.919067%, 93.501282%)" offset="0.734375"/><stop stop-opacity="1" stop-color="rgb(1.095581%, 39.071655%, 93.849182%)" offset="0.75"/><stop stop-opacity="1" stop-color="rgb(1.052856%, 39.225769%, 94.198608%)" offset="0.765625"/><stop stop-opacity="1" stop-color="rgb(1.010132%, 39.378357%, 94.546509%)" offset="0.78125"/><stop stop-opacity="1" stop-color="rgb(0.968933%, 39.532471%, 94.894409%)" offset="0.796875"/><stop stop-opacity="1" stop-color="rgb(0.926208%, 39.685059%, 95.243835%)" offset="0.8125"/><stop stop-opacity="1" stop-color="rgb(0.883484%, 39.837646%, 95.591736%)" offset="0.828125"/><stop stop-opacity="1" stop-color="rgb(0.842285%, 39.99176%, 95.939636%)" offset="0.84375"/><stop stop-opacity="1" stop-color="rgb(0.799561%, 40.144348%, 96.289062%)" offset="0.859375"/><stop stop-opacity="1" stop-color="rgb(0.756836%, 40.296936%, 96.636963%)" offset="0.875"/><stop stop-opacity="1" stop-color="rgb(0.715637%, 40.45105%, 96.986389%)" offset="0.890625"/><stop stop-opacity="1" stop-color="rgb(0.672913%, 40.603638%, 97.33429%)" offset="0.90625"/><stop stop-opacity="1" stop-color="rgb(0.631714%, 40.756226%, 97.68219%)" offset="0.921875"/><stop stop-opacity="1" stop-color="rgb(0.588989%, 40.910339%, 98.031616%)" offset="0.9375"/><stop stop-opacity="1" stop-color="rgb(0.546265%, 41.062927%, 98.379517%)" offset="0.953125"/><stop stop-opacity="1" stop-color="rgb(0.505066%, 41.215515%, 98.727417%)" offset="0.96875"/><stop stop-opacity="1" stop-color="rgb(0.462341%, 41.369629%, 99.076843%)" offset="0.984375"/><stop stop-opacity="1" stop-color="rgb(0.419617%, 41.522217%, 99.424744%)" offset="1"/></linearGradient><clipPath id="b8522f6abd"><path d="M 241 186 L 530 186 L 530 584.96875 L 241 584.96875 Z M 241 186 " clip-rule="nonzero"/></clipPath></defs><g clip-path="url(#a8e5cc8869)"><g clip-path="url(#ca348eb40d)"><path fill="url(#1f5c346d3c)" d="M 5.941406 5.941406 L 5.941406 762.058594 L 762.058594 762.058594 L 762.058594 5.941406 Z M 5.941406 5.941406 " fill-rule="nonzero"/></g></g><g clip-path="url(#b8522f6abd)"><path fill="#ffffff" d="M 461.734375 221.949219 C 441.84375 198.339844 413.214844 186.472656 375.675781 186.472656 C 347.992188 186.472656 324.144531 192.140625 304.078125 203.414062 C 284.007812 214.746094 268.601562 230.863281 257.917969 251.933594 C 247.175781 272.949219 241.863281 298.09375 241.863281 327.3125 C 241.863281 371.34375 253.726562 405.933594 277.515625 431.019531 C 301.242188 456.164062 334.003906 468.738281 375.675781 468.738281 C 401.410156 468.738281 423.015625 463.191406 440.546875 452.09375 C 444.914062 449.320312 448.984375 446.191406 452.824219 442.765625 L 452.824219 457.050781 C 452.824219 478.890625 446.210938 495.417969 432.929688 506.75 C 419.710938 518.023438 400.40625 523.691406 375.085938 523.691406 C 358.320312 523.691406 343.386719 521.035156 330.226562 515.839844 L 358.5 584.136719 C 365.285156 584.726562 372.132812 585.078125 379.15625 585.078125 C 427.441406 585.078125 464.6875 572.507812 490.777344 547.363281 C 516.867188 522.214844 529.910156 486.328125 529.910156 439.578125 L 529.910156 193.5 L 470.886719 193.5 L 461.675781 222.007812 Z M 452.824219 374 C 445.386719 384.09375 436.886719 391.707031 427.085938 396.550781 C 416.582031 401.800781 404.65625 404.457031 391.433594 404.457031 C 369.242188 404.457031 352.003906 397.671875 339.726562 384.035156 C 327.449219 370.402344 321.3125 351.511719 321.3125 327.371094 C 321.3125 311.375 324.027344 297.5625 329.515625 285.875 C 334.945312 274.1875 343.035156 265.214844 353.777344 259.019531 C 364.460938 252.820312 377.03125 249.691406 391.496094 249.691406 C 417.054688 249.691406 437.417969 260.316406 452.824219 281.328125 L 452.824219 374.117188 Z M 452.824219 374 " fill-opacity="1" fill-rule="nonzero"/></g></svg>