<?xml version="1.0" encoding="UTF-8"?>
<svg id="Capa_2" data-name="Capa 2" xmlns="http://www.w3.org/2000/svg" viewBox="0 0 511 511">
  <defs>
    <style>
      .cls-1 {
        fill: #fff;
      }
    </style>
  </defs>
  <g id="Capa_1-2" data-name="Capa 1">
    <rect width="511" height="511" rx="60.49" ry="60.49"/>
    <path class="cls-1" d="M316.74,123.24c-16.06-19.08-39.21-28.67-69.5-28.67-22.34,0-41.61,4.56-57.81,13.69-16.21,9.13-28.63,22.18-37.28,39.17-8.66,16.99-12.98,37.28-12.98,60.88,0,35.56,9.59,63.48,28.79,83.77,19.19,20.29,45.61,30.44,79.28,30.44,20.77,0,38.23-4.49,52.39-13.45,3.52-2.23,6.82-4.75,9.91-7.55v11.56c0,17.62-5.35,30.99-16.05,40.12-10.7,9.12-26.28,13.69-46.72,13.69-13.52,0-25.58-2.14-36.25-6.34l22.85,55.14c5.48.45,11.03.75,16.71.75,39.01,0,69.06-10.15,90.14-30.44,21.08-20.29,31.62-49.32,31.62-87.07V100.23h-47.67l-7.43,23.01ZM309.54,246.01c-5.99,8.15-12.88,14.28-20.77,18.23-8.49,4.25-18.1,6.37-28.78,6.37-17.94,0-31.86-5.5-41.77-16.52-9.91-11.01-14.86-26.27-14.86-45.78,0-12.9,2.2-24.07,6.61-33.51,4.4-9.44,10.93-16.68,19.59-21.71,8.65-5.03,18.79-7.55,30.44-7.55,20.62,0,37.11,8.57,49.55,25.53v74.94Z"/>
  </g>
</svg>